<?xml version="1.0" encoding="UTF-8"?>
<svg xmlns="http://www.w3.org/2000/svg" xmlns:xlink="http://www.w3.org/1999/xlink" width="0" height="0">
<symbol id="info-circle" width="16" height="16" fill="currentColor" class="bi bi-info-circle" viewBox="0 0 16 16">
  <path d="M8 15A7 7 0 1 1 8 1a7 7 0 0 1 0 14zm0 1A8 8 0 1 0 8 0a8 8 0 0 0 0 16z"/>
  <path d="m8.93 6.588-2.29.287-.082.38.45.083c.294.07.352.176.288.469l-.738 3.468c-.194.897.105 1.319.808 1.319.545 0 1.178-.252 1.465-.598l.088-.416c-.2.176-.492.246-.686.246-.275 0-.375-.193-.304-.533L8.93 6.588zM9 4.5a1 1 0 1 1-2 0 1 1 0 0 1 2 0z"/>
</symbol>
<symbol id="gear" width="16" height="16" fill="currentColor" class="bi bi-gear" viewBox="0 0 16 16">
  <path d="M8 4.754a3.246 3.246 0 1 0 0 6.492 3.246 3.246 0 0 0 0-6.492zM5.754 8a2.246 2.246 0 1 1 4.492 0 2.246 2.246 0 0 1-4.492 0z"/>
  <path d="M9.796 1.343c-.527-1.79-3.065-1.79-3.592 0l-.094.319a.873.873 0 0 1-1.255.52l-.292-.16c-1.64-.892-3.433.902-2.54 2.541l.159.292a.873.873 0 0 1-.52 1.255l-.319.094c-1.79.527-1.79 3.065 0 3.592l.319.094a.873.873 0 0 1 .52 1.255l-.16.292c-.892 1.64.901 3.434 2.541 2.54l.292-.159a.873.873 0 0 1 1.255.52l.094.319c.527 1.79 3.065 1.79 3.592 0l.094-.319a.873.873 0 0 1 1.255-.52l.292.16c1.64.893 3.434-.902 2.54-2.541l-.159-.292a.873.873 0 0 1 .52-1.255l.319-.094c1.79-.527 1.79-3.065 0-3.592l-.319-.094a.873.873 0 0 1-.52-1.255l.16-.292c.893-1.64-.902-3.433-2.541-2.54l-.292.159a.873.873 0 0 1-1.255-.52l-.094-.319zm-2.633.283c.246-.835 1.428-.835 1.674 0l.094.319a1.873 1.873 0 0 0 2.693 1.115l.291-.16c.764-.415 1.6.42 1.184 1.185l-.159.292a1.873 1.873 0 0 0 1.116 2.692l.318.094c.835.246.835 1.428 0 1.674l-.319.094a1.873 1.873 0 0 0-1.115 2.693l.16.291c.415.764-.42 1.6-1.185 1.184l-.291-.159a1.873 1.873 0 0 0-2.693 1.116l-.094.318c-.246.835-1.428.835-1.674 0l-.094-.319a1.873 1.873 0 0 0-2.692-1.115l-.292.16c-.764.415-1.6-.42-1.184-1.185l.159-.291A1.873 1.873 0 0 0 1.945 8.93l-.319-.094c-.835-.246-.835-1.428 0-1.674l.319-.094A1.873 1.873 0 0 0 3.06 4.377l-.16-.292c-.415-.764.42-1.6 1.185-1.184l.292.159a1.873 1.873 0 0 0 2.692-1.115l.094-.319z"/>
</symbol>
<symbol id="exclamation-triangle" width="16" height="16" fill="currentColor" class="bi bi-exclamation-triangle" viewBox="0 0 16 16">
  <path d="M7.938 2.016A.13.13 0 0 1 8.002 2a.13.13 0 0 1 .063.016.146.146 0 0 1 .054.057l6.857 11.667c.036.06.035.124.002.183a.163.163 0 0 1-.054.06.116.116 0 0 1-.066.017H1.146a.115.115 0 0 1-.066-.017.163.163 0 0 1-.054-.06.176.176 0 0 1 .002-.183L7.884 2.073a.147.147 0 0 1 .054-.057zm1.044-.45a1.13 1.13 0 0 0-1.96 0L.165 13.233c-.457.778.091 1.767.98 1.767h13.713c.889 0 1.438-.99.98-1.767L8.982 1.566z"/>
  <path d="M7.002 12a1 1 0 1 1 2 0 1 1 0 0 1-2 0zM7.1 5.995a.905.905 0 1 1 1.8 0l-.35 3.507a.552.552 0 0 1-1.1 0L7.1 5.995z"/>
</symbol>
<symbol id="exclamation-octagon" width="16" height="16" fill="currentColor" class="bi bi-exclamation-octagon" viewBox="0 0 16 16">
  <path d="M4.54.146A.5.5 0 0 1 4.893 0h6.214a.5.5 0 0 1 .353.146l4.394 4.394a.5.5 0 0 1 .146.353v6.214a.5.5 0 0 1-.146.353l-4.394 4.394a.5.5 0 0 1-.353.146H4.893a.5.5 0 0 1-.353-.146L.146 11.46A.5.5 0 0 1 0 11.107V4.893a.5.5 0 0 1 .146-.353L4.54.146zM5.1 1 1 5.1v5.8L5.1 15h5.8l4.1-4.1V5.1L10.9 1H5.1z"/>
  <path d="M7.002 11a1 1 0 1 1 2 0 1 1 0 0 1-2 0zM7.1 4.995a.905.905 0 1 1 1.8 0l-.35 3.507a.552.552 0 0 1-1.1 0L7.1 4.995z"/>
</symbol>
<symbol id="check2-circle" width="16" height="16" fill="currentColor" class="bi bi-check2-circle" viewBox="0 0 16 16">
  <path d="M2.5 8a5.5 5.5 0 0 1 8.25-4.764.5.5 0 0 0 .5-.866A6.5 6.5 0 1 0 14.5 8a.5.5 0 0 0-1 0 5.5 5.5 0 1 1-11 0z"/>
  <path d="M15.354 3.354a.5.5 0 0 0-.708-.708L8 9.293 5.354 6.646a.5.5 0 1 0-.708.708l3 3a.5.5 0 0 0 .708 0l7-7z"/>
</symbol>
<symbol id="trash" width="16" height="16" fill="currentColor" class="bi bi-trash" viewBox="0 0 16 16">
  <path d="M5.5 5.5A.5.5 0 0 1 6 6v6a.5.5 0 0 1-1 0V6a.5.5 0 0 1 .5-.5Zm2.5 0a.5.5 0 0 1 .5.5v6a.5.5 0 0 1-1 0V6a.5.5 0 0 1 .5-.5Zm3 .5a.5.5 0 0 0-1 0v6a.5.5 0 0 0 1 0V6Z"/>
  <path d="M14.5 3a1 1 0 0 1-1 1H13v9a2 2 0 0 1-2 2H5a2 2 0 0 1-2-2V4h-.5a1 1 0 0 1-1-1V2a1 1 0 0 1 1-1H6a1 1 0 0 1 1-1h2a1 1 0 0 1 1 1h3.5a1 1 0 0 1 1 1v1ZM4.118 4 4 4.059V13a1 1 0 0 0 1 1h6a1 1 0 0 0 1-1V4.059L11.882 4H4.118ZM2.5 3h11V2h-11v1Z"/>
</symbol>
<symbol id="caret-up" width="16" height="16" fill="currentColor" class="bi bi-caret-up" viewBox="0 0 16 16">
  <path d="M3.204 11h9.592L8 5.519 3.204 11zm-.753-.659 4.796-5.48a1 1 0 0 1 1.506 0l4.796 5.48c.566.647.106 1.659-.753 1.659H3.204a1 1 0 0 1-.753-1.659z"/>
</symbol>
<symbol id="caret-down" width="16" height="16" fill="currentColor" class="bi bi-caret-down" viewBox="0 0 16 16">
  <path d="M3.204 5h9.592L8 10.481 3.204 5zm-.753.659 4.796 5.48a1 1 0 0 0 1.506 0l4.796-5.48c.566-.647.106-1.659-.753-1.659H3.204a1 1 0 0 0-.753 1.659z"/>
</symbol>
<symbol id="share" width="16" height="16" fill="currentColor" class="bi bi-share" viewBox="0 0 16 16">
  <path d="M13.5 1a1.5 1.5 0 1 0 0 3 1.5 1.5 0 0 0 0-3zM11 2.5a2.5 2.5 0 1 1 .603 1.628l-6.718 3.12a2.499 2.499 0 0 1 0 1.504l6.718 3.12a2.5 2.5 0 1 1-.488.876l-6.718-3.12a2.5 2.5 0 1 1 0-3.256l6.718-3.12A2.5 2.5 0 0 1 11 2.5zm-8.5 4a1.5 1.5 0 1 0 0 3 1.5 1.5 0 0 0 0-3zm11 5.5a1.5 1.5 0 1 0 0 3 1.5 1.5 0 0 0 0-3z"/>
</symbol>
<symbol id="folder" width="16" height="16" fill="currentColor" class="bi bi-folder" viewBox="0 0 16 16">
  <path d="M.54 3.87.5 3a2 2 0 0 1 2-2h3.672a2 2 0 0 1 1.414.586l.828.828A2 2 0 0 0 9.828 3h3.982a2 2 0 0 1 1.992 2.181l-.637 7A2 2 0 0 1 13.174 14H2.826a2 2 0 0 1-1.991-1.819l-.637-7a1.99 1.99 0 0 1 .342-1.31zM2.19 4a1 1 0 0 0-.996 1.09l.637 7a1 1 0 0 0 .995.91h10.348a1 1 0 0 0 .995-.91l.637-7A1 1 0 0 0 13.81 4H2.19zm4.69-1.707A1 1 0 0 0 6.172 2H2.5a1 1 0 0 0-1 .981l.006.139C1.72 3.042 1.95 3 2.19 3h5.396l-.707-.707z"/>
</symbol>
<symbol id="folder-plus" width="16" height="16" fill="currentColor" class="bi bi-folder-plus" viewBox="0 0 16 16">
  <path d="m.5 3 .04.87a1.99 1.99 0 0 0-.342 1.311l.637 7A2 2 0 0 0 2.826 14H9v-1H2.826a1 1 0 0 1-.995-.91l-.637-7A1 1 0 0 1 2.19 4h11.62a1 1 0 0 1 .996 1.09L14.54 8h1.005l.256-2.819A2 2 0 0 0 13.81 3H9.828a2 2 0 0 1-1.414-.586l-.828-.828A2 2 0 0 0 6.172 1H2.5a2 2 0 0 0-2 2Zm5.672-1a1 1 0 0 1 .707.293L7.586 3H2.19c-.24 0-.47.042-.683.12L1.5 2.98a1 1 0 0 1 1-.98h3.672Z"/>
  <path d="M13.5 9a.5.5 0 0 1 .5.5V11h1.5a.5.5 0 1 1 0 1H14v1.5a.5.5 0 1 1-1 0V12h-1.5a.5.5 0 0 1 0-1H13V9.5a.5.5 0 0 1 .5-.5Z"/>
</symbol>
<symbol id="file-earmark" width="16" height="16" fill="currentColor" class="bi bi-file-earmark" viewBox="0 0 16 16">
  <path d="M14 4.5V14a2 2 0 0 1-2 2H4a2 2 0 0 1-2-2V2a2 2 0 0 1 2-2h5.5L14 4.5zm-3 0A1.5 1.5 0 0 1 9.5 3V1H4a1 1 0 0 0-1 1v12a1 1 0 0 0 1 1h8a1 1 0 0 0 1-1V4.5h-2z"/>
</symbol>
<symbol id="file-earmark-plus" width="16" height="16" fill="currentColor" class="bi bi-file-earmark-plus" viewBox="0 0 16 16">
  <path d="M8 6.5a.5.5 0 0 1 .5.5v1.5H10a.5.5 0 0 1 0 1H8.5V11a.5.5 0 0 1-1 0V9.5H6a.5.5 0 0 1 0-1h1.5V7a.5.5 0 0 1 .5-.5z"/>
  <path d="M14 4.5V14a2 2 0 0 1-2 2H4a2 2 0 0 1-2-2V2a2 2 0 0 1 2-2h5.5L14 4.5zm-3 0A1.5 1.5 0 0 1 9.5 3V1H4a1 1 0 0 0-1 1v12a1 1 0 0 0 1 1h8a1 1 0 0 0 1-1V4.5h-2z"/>
</symbol>
<symbol id="file-earmark-play" width="16" height="16" fill="currentColor" class="bi bi-file-earmark-play" viewBox="0 0 16 16">
  <path d="M6 6.883v4.234a.5.5 0 0 0 .757.429l3.528-2.117a.5.5 0 0 0 0-.858L6.757 6.454a.5.5 0 0 0-.757.43z"/>
  <path d="M14 14V4.5L9.5 0H4a2 2 0 0 0-2 2v12a2 2 0 0 0 2 2h8a2 2 0 0 0 2-2zM9.5 3A1.5 1.5 0 0 0 11 4.5h2V14a1 1 0 0 1-1 1H4a1 1 0 0 1-1-1V2a1 1 0 0 1 1-1h5.5v2z"/>
</symbol>
<symbol id="file-earmark-music" width="16" height="16" fill="currentColor" class="bi bi-file-earmark-music" viewBox="0 0 16 16">
  <path d="M11 6.64a1 1 0 0 0-1.243-.97l-1 .25A1 1 0 0 0 8 6.89v4.306A2.572 2.572 0 0 0 7 11c-.5 0-.974.134-1.338.377-.36.24-.662.628-.662 1.123s.301.883.662 1.123c.364.243.839.377 1.338.377.5 0 .974-.134 1.338-.377.36-.24.662-.628.662-1.123V8.89l2-.5V6.64z"/>
  <path d="M14 14V4.5L9.5 0H4a2 2 0 0 0-2 2v12a2 2 0 0 0 2 2h8a2 2 0 0 0 2-2zM9.5 3A1.5 1.5 0 0 0 11 4.5h2V14a1 1 0 0 1-1 1H4a1 1 0 0 1-1-1V2a1 1 0 0 1 1-1h5.5v2z"/>
</symbol>
<symbol id="file-earmark-image" width="16" height="16" fill="currentColor" class="bi bi-file-earmark-image" viewBox="0 0 16 16">
  <path d="M6.502 7a1.5 1.5 0 1 0 0-3 1.5 1.5 0 0 0 0 3z"/>
  <path d="M14 14a2 2 0 0 1-2 2H4a2 2 0 0 1-2-2V2a2 2 0 0 1 2-2h5.5L14 4.5V14zM4 1a1 1 0 0 0-1 1v10l2.224-2.224a.5.5 0 0 1 .61-.075L8 11l2.157-3.02a.5.5 0 0 1 .76-.063L13 10V4.5h-2A1.5 1.5 0 0 1 9.5 3V1H4z"/>
</symbol>
<symbol id="copy" width="16" height="16" fill="currentColor" class="bi bi-copy" viewBox="0 0 16 16">
  <path fill-rule="evenodd" d="M4 2a2 2 0 0 1 2-2h8a2 2 0 0 1 2 2v8a2 2 0 0 1-2 2H6a2 2 0 0 1-2-2V2Zm2-1a1 1 0 0 0-1 1v8a1 1 0 0 0 1 1h8a1 1 0 0 0 1-1V2a1 1 0 0 0-1-1H6ZM2 5a1 1 0 0 0-1 1v8a1 1 0 0 0 1 1h8a1 1 0 0 0 1-1v-1h1v1a2 2 0 0 1-2 2H2a2 2 0 0 1-2-2V6a2 2 0 0 1 2-2h1v1H2Z"/>
</symbol>
<symbol id="box-arrow-right" width="16" height="16" fill="currentColor" class="bi bi-box-arrow-right" viewBox="0 0 16 16">
  <path fill-rule="evenodd" d="M10 12.5a.5.5 0 0 1-.5.5h-8a.5.5 0 0 1-.5-.5v-9a.5.5 0 0 1 .5-.5h8a.5.5 0 0 1 .5.5v2a.5.5 0 0 0 1 0v-2A1.5 1.5 0 0 0 9.5 2h-8A1.5 1.5 0 0 0 0 3.5v9A1.5 1.5 0 0 0 1.5 14h8a1.5 1.5 0 0 0 1.5-1.5v-2a.5.5 0 0 0-1 0v2z"/>
  <path fill-rule="evenodd" d="M15.854 8.354a.5.5 0 0 0 0-.708l-3-3a.5.5 0 0 0-.708.708L14.293 7.5H5.5a.5.5 0 0 0 0 1h8.793l-2.147 2.146a.5.5 0 0 0 .708.708l3-3z"/>
</symbol>
</svg>
